<svg width="336" height="347" viewBox="0 0 336 347" fill="none" xmlns="http://www.w3.org/2000/svg">
<g filter="url(#filter0_i_0_1)">
<path d="M8.01004 186.155C-1.92078 177.023 -1.36771 161.186 9.17595 152.768L75.9223 99.4832C78.6151 97.3335 80.7652 94.5814 82.1996 91.4486L117.755 13.794C123.371 1.52724 138.604 -2.8408 149.868 4.58574L221.171 51.5993C224.047 53.4959 227.329 54.6904 230.752 55.0865L315.593 64.9048C328.995 66.4557 337.857 79.5936 334.274 92.6007L311.596 174.942C310.681 178.264 310.559 181.754 311.24 185.132L328.119 268.854C330.786 282.08 321.029 294.567 307.552 295.18L222.232 299.056C218.79 299.212 215.433 300.175 212.431 301.866L138.023 343.791C126.268 350.414 111.377 344.994 106.63 332.365L76.5784 252.42C75.366 249.195 73.4131 246.299 70.8768 243.967L8.01004 186.155Z" fill="#2CF2FF"/>
</g>
<path d="M18.2224 164.1L84.9688 110.815C89.4363 107.249 93.0036 102.683 95.3834 97.485L130.938 19.8304C132.853 15.6485 138.046 14.1594 141.886 16.6912L213.189 63.7047C217.962 66.8515 223.407 68.8332 229.085 69.4904L313.926 79.3087C318.495 79.8374 321.516 84.3162 320.295 88.7504L297.616 171.092C296.098 176.603 295.896 182.394 297.026 187.997L313.905 271.72C314.814 276.229 311.488 280.486 306.894 280.695L221.574 284.571C215.864 284.83 210.294 286.427 205.314 289.233L130.905 331.159C126.898 333.416 121.821 331.569 120.203 327.263L90.1511 247.318C88.1397 241.967 84.8996 237.163 80.6918 233.294L17.825 175.482C14.4395 172.369 14.628 166.97 18.2224 164.1Z" stroke="#3C4F6D" stroke-width="29"/>
<path d="M100.605 156.651L105.5 146L110.395 156.651L121 161.976L110.395 167.711L105.5 180L100.605 167.711L90 161.976L100.605 156.651Z" fill="#FAFE48"/>
<path d="M131.605 115.651L136.5 105L141.395 115.651L152 120.976L141.395 126.711L136.5 139L131.605 126.711L121 120.976L131.605 115.651Z" fill="#FAFE48"/>
<defs>
<filter id="filter0_i_0_1" x="0.901535" y="0.946442" width="334.172" height="345.686" filterUnits="userSpaceOnUse" color-interpolation-filters="sRGB">
<feFlood flood-opacity="0" result="BackgroundImageFix"/>
<feBlend mode="normal" in="SourceGraphic" in2="BackgroundImageFix" result="shape"/>
<feColorMatrix in="SourceAlpha" type="matrix" values="0 0 0 0 0 0 0 0 0 0 0 0 0 0 0 0 0 0 127 0" result="hardAlpha"/>
<feOffset dx="17" dy="13"/>
<feComposite in2="hardAlpha" operator="arithmetic" k2="-1" k3="1"/>
<feColorMatrix type="matrix" values="0 0 0 0 0 0 0 0 0 0 0 0 0 0 0 0 0 0 0.25 0"/>
<feBlend mode="normal" in2="shape" result="effect1_innerShadow_0_1"/>
</filter>
</defs>
</svg>
